<?xml version="1.0" encoding="utf-8"?>
<!-- Original Author: Unknown (if you are the original creator of the F-Droid button, please contact laura@ind.ie so I can credit you!)  -->
<!-- Author: Created by Laura Kalbag and Released with â¤ by ind.ie (laura@ind.ie) -->
<!-- License: This work is licensed under the Creative Commons Attribution-ShareAlike 4.0 International License. To view a copy of this license, visit http://creativecommons.org/licenses/by-sa/4.0/. (As attribution is included in this file, you needn't include additional attribution on your site.) -->
<!-- How to use: The original blog post about this SVG button and how I use SVG on the Ind.ie website is at https://ind.ie/blog/f-droid-button/ -->
<!DOCTYPE svg PUBLIC "-//W3C//DTD SVG 1.1//EN" "http://www.w3.org/Graphics/SVG/1.1/DTD/svg11.dtd">
<svg version="1.1" id="button_1_" xmlns="http://www.w3.org/2000/svg" xmlns:xlink="http://www.w3.org/1999/xlink" x="0px" y="0px"
	 viewBox="1490 188 300 104" enable-background="new 1490 188 300 104" xml:space="preserve">
<g id="get_it_on_f-droid_2_">
	<path id="button" d="M1780,292h-280c-5.5,0-10-4.5-10-10v-84c0-5.5,4.5-10,10-10h280c5.5,0,10,4.5,10,10v84
		C1790,287.5,1785.5,292,1780,292z"/>
	<g id="f-droid_2_">
		<path fill="#FFFFFF" d="M1621.2,236.8v3.6v1.2v5h-0.3h-0.6h-2.2c-0.7,0-1-0.3-1.2-1c-0.1-0.4-0.2-1.6-0.3-3.4h-13.5v11.1h13.2v5.5
			h-13.2v10.1c0.9,0.2,1.7,0.3,2.6,0.4c0.9,0.2,1.3,0.7,1.3,1.6v3h-3.9h-7.1h-3.9v-3c0-0.9,0.4-1.5,1.3-1.6c0.9-0.2,1.7-0.3,2.6-0.4
			V242c-0.9-0.2-1.7-0.3-2.6-0.4c-0.9-0.2-1.3-0.7-1.3-1.6v-3h3.9h22.7h1.2L1621.2,236.8L1621.2,236.8z"/>
		<path fill="#FFFFFF" d="M1637.2,256v5.4h-13.5V256H1637.2z"/>
		<path fill="#FFFFFF" d="M1676.7,255.6c0,5-1.7,10-5.3,13.5c-3.7,3.6-8.8,5.3-13.9,5.3h-13.9h-3.9v-3c0-0.9,0.4-1.5,1.3-1.6
			c0.9-0.2,1.7-0.3,2.6-0.4V242c-0.9-0.2-1.7-0.3-2.6-0.4c-0.9-0.2-1.3-0.7-1.3-1.6v-3h3.9h13.9c5.1,0,10.2,1.6,13.9,5.3
			C1675.1,245.6,1676.7,250.7,1676.7,255.6C1676.7,258.4,1676.7,252.9,1676.7,255.6z M1669.6,255.6c0-3.4-0.8-6.9-3.1-9.5
			s-5.6-3.7-8.9-3.7h-6.8v26.4h6.8c3.4,0,6.7-1.1,8.9-3.7C1668.8,262.5,1669.6,259,1669.6,255.6z"/>
		<path fill="#FFFFFF" d="M1699.7,248.1l-0.9,4.8c-0.2,1.1-1.3,0.9-2.1,0.7c-1-0.3-2.2-0.3-3.1,0c-2.2,0.5-3.7,2.3-4.5,4.2v11.4
			c2.3,0.4,2.3,0.4,2.6,0.4c0.9,0.2,1.3,0.7,1.3,1.6v3h-3.9l0,0h-6.5h-3.9v-3c0-0.9,0.4-1.5,1.3-1.6c0.4-0.1,0.4-0.1,2.6-0.4v-16.3
			c-2.3-0.4-2.3-0.4-2.6-0.4c-0.9-0.2-1.3-0.7-1.3-1.6v-3h3.9l0,0h3.8c1.1,0,1.7,0.4,1.9,1.6l0.3,3.2c1.1-1.9,2.6-3.7,4.7-4.7
			C1695.2,247,1697.8,246.9,1699.7,248.1z"/>
		<path fill="#FFFFFF" d="M1719.4,248.3c5.7,2.3,8,8,7.8,13.7c-0.3,5.6-3.4,10.7-9.1,12.3c-5.4,1.5-11.9,0-15.1-4.9
			c-3.1-4.6-3.2-11.6-0.3-16.4C1706,247.6,1713.6,246,1719.4,248.3C1721,248.9,1717.8,247.6,1719.4,248.3z M1718.9,267.6
			c2-2.8,2-7.1,1.2-10.2c-0.3-1.5-1-2.9-2.2-3.9c-1.3-1-3-1.4-4.6-1.2c-3.5,0.2-5.3,2.7-5.8,5.9c-0.5,3.1-0.5,7.5,1.8,10
			C1711.8,270.7,1716.8,270.5,1718.9,267.6C1720,266.2,1717.9,269.1,1718.9,267.6z"/>
		<path fill="#FFFFFF" d="M1743.3,271.4v3h-3.9h-6.5h-4v-3c0-0.9,0.4-1.5,1.3-1.6c0.9-0.2,1.7-0.3,2.6-0.4v-16.4
			c-0.9-0.2-1.7-0.3-2.6-0.4c-0.9-0.2-1.3-0.7-1.3-1.6v-3h3.9h6.5v21.5c0.9,0.2,1.7,0.3,2.6,0.4
			C1742.9,269.9,1743.3,270.5,1743.3,271.4z M1740,241.6c-1,2-3.4,3-5.4,2.2c-2-0.9-3.1-3.3-2.2-5.3c0.9-2.1,3.3-3,5.4-2.2
			C1739.9,237.1,1741,239.5,1740,241.6C1739.8,242,1740.3,241,1740,241.6z"/>
		<path fill="#FFFFFF" d="M1773.4,274.3h-3.7h-3.9c-0.8,0-1.5-0.3-1.7-1.2l-0.5-2.4c-2.4,2.8-5.9,4.5-9.8,4.1
			c-3.8-0.4-6.5-3.2-7.8-6.6c-2.4-6.6-1.3-16.3,5.6-19.8c3.8-1.9,8.5-1.5,11.6,1.5V241c-0.9-0.2-1.7-0.3-2.6-0.4
			c-0.9-0.2-1.3-0.7-1.3-1.6v-3h3.9h6.5v33.5c0.8,0.2,1.6,0.3,2.4,0.4c0.9,0.2,1.3,0.7,1.3,1.6V274.3z M1763.3,254.6
			c-1.7-2-4.2-2.9-6.7-2.3c-2.5,0.6-3.9,2.8-4.4,5.1c-0.5,2.3-0.5,5-0.1,7.4c0.4,2.3,1.7,4.4,4.1,4.9c2.9,0.5,5.4-1,7.2-3.1V254.6z"
			/>
	</g>
	<g id="get_it_on_2_">
		<path fill="#FFFFFF" d="M1597.5,218.2v-2.9h7.6v6.9c-3.7,3.6-11.2,3.9-14.5-0.3c-3.3-4.2-2.4-11.5,2.6-14c2.2-1.1,5.1-1.1,7.3-0.4
			s3.8,2.4,4.3,4.7l-3.5,0.7c-0.7-2.5-3.5-3.3-5.8-2.5c-2.2,0.7-3.1,2.8-3.2,4.9c-0.1,2.2,0.3,4.6,2.1,5.9c2.1,1.6,5.1,0.9,7-0.6
			v-2.3H1597.5z"/>
		<path fill="#FFFFFF" d="M1608.3,224.7v-17.3h13v2.9h-9.4v3.8h8.8v2.9h-8.8v4.8h9.8v2.9L1608.3,224.7L1608.3,224.7z"/>
		<path fill="#FFFFFF" d="M1628.6,224.7v-14.4h-5.1v-2.9h13.9v2.9h-5.1v14.5L1628.6,224.7L1628.6,224.7z"/>
		<path fill="#FFFFFF" d="M1646.3,224.7v-17.3h3.5v17.3H1646.3z"/>
		<path fill="#FFFFFF" d="M1657.1,224.7v-14.4h-5.1v-2.9h13.9v2.9h-5.1v14.5L1657.1,224.7L1657.1,224.7z"/>
		<path fill="#FFFFFF" d="M1674.1,216.1c0-1.7,0.3-3.3,0.8-4.4c0.8-1.7,2.2-3.2,3.9-4c2.8-1.1,6.5-1,9,0.9c2.5,1.8,3.4,4.9,3.3,7.8
			c-0.1,2.9-1.1,5.8-3.8,7.5c-2.5,1.6-6.1,1.6-8.7,0.3C1675.4,222.7,1674.1,219.4,1674.1,216.1z M1677.8,216c0,2.3,0.7,4.8,3.1,5.6
			c2.2,0.9,4.8,0,5.8-2c1-1.9,1-4.9,0.3-6.8c-0.9-2.1-3.1-3.1-5.3-2.7C1678.7,210.6,1677.8,213.4,1677.8,216z"/>
		<path fill="#FFFFFF" d="M1693.9,224.7v-17.3h3.4l7.2,11.6v-11.6h3.3v17.3h-3.6l-7.1-11.4v11.4H1693.9z"/>
	</g>
	<g id="droid_2_">
		<g>

				<linearGradient id="SVGID_1_" gradientUnits="userSpaceOnUse" x1="413.9844" y1="440.5436" x2="413.9844" y2="452.6552" gradientTransform="matrix(3.7209 0 0 -3.7209 0 1914.4187)">
				<stop  offset="0" style="stop-color:#2B6099"/>
				<stop  offset="0.1299" style="stop-color:#2F69A1"/>
				<stop  offset="0.3451" style="stop-color:#3B83B6"/>
				<stop  offset="0.5" style="stop-color:#4699C8"/>
				<stop  offset="0.9944" style="stop-color:#479ECB"/>
			</linearGradient>
			<path fill="url(#SVGID_1_)" d="M1570.1,275.2h-59.3c-2.9,0-5.2-2.3-5.2-5.2v-34.7c0-2.9,2.4-5.2,5.2-5.2h59.3
				c2.9,0,5.2,2.3,5.2,5.2V270C1575.3,272.8,1572.9,275.2,1570.1,275.2z"/>

				<linearGradient id="SVGID_2_" gradientUnits="userSpaceOnUse" x1="413.9844" y1="440.5436" x2="413.9844" y2="452.6552" gradientTransform="matrix(3.7209 0 0 -3.7209 0 1914.4187)">
				<stop  offset="0" style="stop-color:#2B6099"/>
				<stop  offset="0.5" style="stop-color:#58A4CD"/>
				<stop  offset="0.7865" style="stop-color:#7FB8D9"/>
				<stop  offset="1" style="stop-color:#9EC9E2"/>
			</linearGradient>
			<path fill="url(#SVGID_2_)" d="M1570.1,231.9c1.9,0,3.5,1.6,3.5,3.5V270c0,1.9-1.6,3.5-3.5,3.5h-59.3c-1.9,0-3.5-1.6-3.5-3.5
				v-34.7c0-1.9,1.6-3.5,3.5-3.5H1570.1 M1570.1,230.1h-59.3c-2.9,0-5.2,2.3-5.2,5.2V270c0,2.9,2.4,5.2,5.2,5.2h59.3
				c2.9,0,5.2-2.3,5.2-5.2v-34.7C1575.3,232.5,1572.9,230.1,1570.1,230.1L1570.1,230.1z"/>
		</g>
		<g>
			<path fill="#295384" d="M1540.4,236.6c8.9,0,16.1,7.2,16.1,16c0,8.8-7.2,16-16.1,16s-16.1-7.2-16.1-16S1531.5,236.6,1540.4,236.6
				 M1540.4,235.3c-9.6,0-17.4,7.8-17.4,17.3s7.8,17.3,17.4,17.3s17.4-7.8,17.4-17.3S1550.1,235.3,1540.4,235.3L1540.4,235.3z"/>
		</g>
		<path fill="#295384" d="M1535.4,251.1c1.9-5.7,10.7-3.9,10.2,2.2c-0.5,5.6-8.5,6.2-10.2,1.2c0,0,0,0.1,0,0l0,0
			c-2.4,0.2-4.7,0.4-7.1,0.6c1.7,10.1,15.3,13.1,21.6,5.3c6.5-8,0.3-20.2-10-19.8c-5.6,0.3-10.5,4.3-11.5,9.8"/>
		<path fill="#7B952D" d="M1580.3,198.7l-2-1.6c-0.3-0.3-1-0.3-1.2,0.1l-6.8,7.9c-0.3,0.3-0.3,1,0.1,1.2l2,1.6
			c0.3,0.3,1,0.3,1.2-0.1l6.8-7.9C1580.7,199.6,1580.6,199,1580.3,198.7z"/>
		<path fill="#7B952D" d="M1500.6,198.1l2-1.6c0.3-0.3,1-0.3,1.2,0.1l6.8,7.9c0.3,0.3,0.3,1-0.1,1.2l-2,1.6c-0.3,0.3-1,0.3-1.2-0.1
			l-6.8-7.9C1500.2,199,1500.3,198.5,1500.6,198.1z"/>

			<linearGradient id="SVGID_3_" gradientUnits="userSpaceOnUse" x1="413.9844" y1="453.354" x2="413.9844" y2="459.4099" gradientTransform="matrix(3.7209 0 0 -3.7209 0 1914.4187)">
			<stop  offset="0" style="stop-color:#BCDB52"/>
			<stop  offset="0.3206" style="stop-color:#C5E358"/>
			<stop  offset="0.5" style="stop-color:#CDEA5C"/>
			<stop  offset="0.9944" style="stop-color:#DCF285"/>
		</linearGradient>
		<path fill="url(#SVGID_3_)" stroke="#7B952D" stroke-miterlimit="10" d="M1572.7,227.5h-64.5c-1,0-1.7-0.8-1.7-1.7v-19.1
			c0-1,0.8-1.7,1.7-1.7h64.5c1,0,1.7,0.8,1.7,1.7v19.1C1574.4,226.7,1573.6,227.5,1572.7,227.5z"/>
		<g>
			<ellipse fill="#FFFFFF" cx="1523" cy="215.4" rx="6.1" ry="6.1"/>

				<linearGradient id="SVGID_4_" gradientUnits="userSpaceOnUse" x1="409.8439" y1="458.401" x2="408.7539" y2="454.8358" gradientTransform="matrix(3.7209 0 0 -3.7209 0 1914.4187)">
				<stop  offset="0" style="stop-color:#8BA53D"/>
				<stop  offset="8.484717e-02" style="stop-color:#94AE45"/>
				<stop  offset="0.2259" style="stop-color:#AEC65C"/>
				<stop  offset="0.4048" style="stop-color:#D7ED81"/>
				<stop  offset="0.4246" style="stop-color:#DCF285"/>
			</linearGradient>
			<path fill="url(#SVGID_4_)" d="M1523,222.3c-3.8,0-7-3.1-7-6.9c0-3.8,3.1-6.9,7-6.9c3.8,0,7,3.1,7,6.9
				C1529.9,219.2,1526.9,222.3,1523,222.3z M1523,210.2c-2.9,0-5.2,2.3-5.2,5.2s2.4,5.2,5.2,5.2s5.2-2.3,5.2-5.2
				S1525.9,210.2,1523,210.2z"/>
		</g>
		<g>
			<ellipse fill="#FFFFFF" cx="1557.8" cy="215.4" rx="6.1" ry="6.1"/>

				<linearGradient id="SVGID_5_" gradientUnits="userSpaceOnUse" x1="419.2189" y1="458.401" x2="418.129" y2="454.8359" gradientTransform="matrix(3.7209 0 0 -3.7209 0 1914.4187)">
				<stop  offset="0" style="stop-color:#8BA53D"/>
				<stop  offset="8.484717e-02" style="stop-color:#94AE45"/>
				<stop  offset="0.2259" style="stop-color:#AEC65C"/>
				<stop  offset="0.4048" style="stop-color:#D7ED81"/>
				<stop  offset="0.4246" style="stop-color:#DCF285"/>
			</linearGradient>
			<path fill="url(#SVGID_5_)" d="M1557.8,222.3c-3.8,0-7-3.1-7-6.9c0-3.8,3.1-6.9,7-6.9c3.8,0,7,3.1,7,6.9
				C1564.8,219.2,1561.8,222.3,1557.8,222.3z M1557.8,210.2c-2.9,0-5.2,2.3-5.2,5.2s2.4,5.2,5.2,5.2c2.9,0,5.2-2.3,5.2-5.2
				S1560.8,210.2,1557.8,210.2z"/>
		</g>
	</g>
</g>
</svg>
