<?xml version="1.0" encoding="UTF-8" standalone="no"?>
<!-- Created with Inkscape (http://www.inkscape.org/) -->

<svg
   xmlns:dc="http://purl.org/dc/elements/1.1/"
   xmlns:cc="http://creativecommons.org/ns#"
   xmlns:rdf="http://www.w3.org/1999/02/22-rdf-syntax-ns#"
   xmlns:svg="http://www.w3.org/2000/svg"
   xmlns="http://www.w3.org/2000/svg"
   xmlns:sodipodi="http://sodipodi.sourceforge.net/DTD/sodipodi-0.dtd"
   xmlns:inkscape="http://www.inkscape.org/namespaces/inkscape"
   width="320"
   height="320"
   id="svg3015"
   version="1.1"
   inkscape:version="0.48.5 r10040"
   sodipodi:docname="icon.svg"
   inkscape:export-filename="W:\Android\AndStatus\Repository\app\res\drawable-xhdpi\icon.png"
   inkscape:export-xdpi="28.799999"
   inkscape:export-ydpi="28.799999">
  <defs
     id="defs3017" />
  <sodipodi:namedview
     id="base"
     pagecolor="#ffffff"
     bordercolor="#666666"
     borderopacity="1.0"
     inkscape:pageopacity="0.0"
     inkscape:pageshadow="2"
     inkscape:zoom="1.2793751"
     inkscape:cx="142.50991"
     inkscape:cy="83.819814"
     inkscape:document-units="px"
     inkscape:current-layer="layer1"
     showgrid="false"
     fit-margin-top="0"
     fit-margin-left="0"
     fit-margin-right="0"
     fit-margin-bottom="0"
     inkscape:window-width="1920"
     inkscape:window-height="1005"
     inkscape:window-x="-9"
     inkscape:window-y="-9"
     inkscape:window-maximized="1" />
  <metadata
     id="metadata3020">
    <rdf:RDF>
      <cc:Work
         rdf:about="">
        <dc:format>image/svg+xml</dc:format>
        <dc:type
           rdf:resource="http://purl.org/dc/dcmitype/StillImage" />
        <dc:title></dc:title>
      </cc:Work>
    </rdf:RDF>
  </metadata>
  <g
     inkscape:label="Capa 1"
     inkscape:groupmode="layer"
     id="layer1"
     transform="translate(-264.28572,-339.50504)">
    <path
       inkscape:connector-curvature="0"
       style="fill:#005b97;fill-opacity:1;fill-rule:nonzero;stroke:none"
       d="m 574.12452,500.12548 c 0,82.84271 -67.15728,150 -149.99999,150 -82.84272,0 -150,-67.15729 -150,-150 0,-82.84271 67.15728,-150 150,-150 82.84271,0 149.99999,67.15729 149.99999,150 z"
       id="path2985" />
    <path
       style="fill:#1e9cd7;fill-opacity:1;fill-rule:nonzero;stroke:none"
       d="m 347.02175,412.02669 c -16.87001,9.71974 -33.72038,19.47362 -50.59375,29.1875 17.87006,10.30292 35.74062,20.60531 53.59375,30.9375 0,-20.625 0,-41.25 0,-61.875 -1,0.58333 -2,1.16667 -3,1.75 z"
       id="path3005"
       inkscape:connector-curvature="0" />
    <path
       style="font-size:200px;font-style:normal;font-variant:normal;font-weight:bold;font-stretch:normal;text-align:start;line-height:125%;letter-spacing:0px;word-spacing:0px;text-anchor:start;fill:#ffffff;fill-opacity:1;stroke:none;font-family:Aaargh;-inkscape-font-specification:Aaargh Bold"
       d="m 384.02175,393.71419 c -24.21881,0.18256 -47.57105,20.27447 -48.53125,44.9375 -0.90366,15.41748 7.48238,29.07396 17.61954,39.85301 3.65232,4.11031 7.29757,8.28826 11.22421,12.17824 -18.87878,8.78173 -39.03362,21.59139 -44.125,43.25 -6.41044,25.16944 7.54435,53.35634 31.54116,63.27582 20.76857,8.1198 45.55959,7.31699 65.52134,-2.80707 8.8059,-5.00739 16.7265,-11.54933 24.28125,-18.28125 8.10348,8.66731 11.81153,12.91941 19.90748,21.59375 -0.68736,-8.13642 -1.35235,-16.32926 -2.02969,-24.30581 -4.3125,-4.55208 -4.72154,-5.01711 -9.03404,-9.56919 13.79003,-18.35295 20.44208,-40.33979 24.76608,-62.71117 -5.37076,1.23956 -12.86156,-0.17338 -16.77973,2.60776 -1.38776,17.2729 -8.10872,33.85801 -18.42385,47.72841 -17.21875,-18.76042 -34.4375,-37.52083 -51.65625,-56.28125 17.25786,-9.29937 37.42424,-19.35321 43.78125,-39.46875 6.19656,-17.70454 2.22855,-39.61768 -12.9375,-51.46875 -9.66399,-8.1053 -22.65634,-11.16474 -35.125,-10.53125 z m 2.125,14 c 13.67048,-0.84545 28.21435,7.0272 31.71875,20.8125 4.46707,15.55948 -1.0982,33.79823 -15.48076,42.00334 -7.5019,5.16289 -15.58544,9.2058 -23.83174,12.93416 -10.71356,-12.68287 -25.95321,-24.89211 -27.53125,-42.5625 -1.10971,-16.30328 11.74895,-30.66156 27.6875,-32.59375 2.42561,-0.45767 4.93169,-0.52445 7.4375,-0.59375 z m 44.65625,157.4375 c -11.62783,13.16234 -27.63973,23.16008 -45.625,23.53125 -17.48604,1.25974 -37.11239,-4.87286 -45.53125,-21.40625 -9.43296,-15.99445 -6.3836,-39.00297 9.5,-49.625 7.74338,-5.84118 16.54663,-10.17252 25.40625,-13.96875 18.75,20.48958 37.5,40.97917 56.25,61.46875 z"
       id="path3787"
       inkscape:connector-curvature="0"
       sodipodi:nodetypes="ccccccccccccccccccccccccccccccc" />
    <path
       style="font-size:79.42274475px;font-style:normal;font-weight:normal;text-align:end;line-height:125%;letter-spacing:0px;word-spacing:0px;text-anchor:end;fill:#1e9cd7;fill-opacity:1;stroke:none;font-family:Sans"
       d="m 489.428,469.58919 c -17.56579,0.34235 -32.74405,16.67266 -31.15625,34.34375 -0.60911,12.1706 7.17162,22.65457 16.46822,29.44328 12.63065,11.7906 31.71797,17.90152 38.68803,34.83797 2.55782,11.9249 -8.63598,24.4625 -20.9375,22.21875 -12.75732,-0.63643 -24.92262,-7.02929 -33.0625,-17.03125 0.68135,8.10381 1.35274,16.20851 2.03125,24.3125 18.34345,11.69153 46.06874,13.19222 61.875,-3.625 10.75798,-13.54454 10.81367,-36.08994 -3.66124,-47.03383 -13.61799,-13.47861 -32.1767,-22.00639 -43.80751,-37.30992 -4.34177,-11.70511 6.27062,-25.44241 18.625,-24.46875 13.05564,0.0884 23.77872,8.20711 32.34375,17.4375 -2.41968,-8.45279 -3.46851,-17.92194 -6.875,-25.71875 -9.0219,-5.86791 -19.82347,-8.07888 -30.53125,-7.40625 z"
       id="text3007"
       inkscape:connector-curvature="0" />
  </g>
</svg>
