<?xml version="1.0" encoding="UTF-8" standalone="no"?>
<!-- Created with Inkscape (http://www.inkscape.org/) -->

<svg
   xmlns:dc="http://purl.org/dc/elements/1.1/"
   xmlns:cc="http://creativecommons.org/ns#"
   xmlns:rdf="http://www.w3.org/1999/02/22-rdf-syntax-ns#"
   xmlns:svg="http://www.w3.org/2000/svg"
   xmlns="http://www.w3.org/2000/svg"
   xmlns:sodipodi="http://sodipodi.sourceforge.net/DTD/sodipodi-0.dtd"
   xmlns:inkscape="http://www.inkscape.org/namespaces/inkscape"
   width="300"
   height="300"
   id="svg3015"
   version="1.1"
   inkscape:version="0.48.5 r10040"
   sodipodi:docname="Documento nuevo 2">
  <defs
     id="defs3017" />
  <sodipodi:namedview
     id="base"
     pagecolor="#ffffff"
     bordercolor="#666666"
     borderopacity="1.0"
     inkscape:pageopacity="0.0"
     inkscape:pageshadow="2"
     inkscape:zoom="0.35"
     inkscape:cx="85.71428"
     inkscape:cy="127.14286"
     inkscape:document-units="px"
     inkscape:current-layer="layer1"
     showgrid="false"
     fit-margin-top="0"
     fit-margin-left="0"
     fit-margin-right="0"
     fit-margin-bottom="0"
     inkscape:window-width="584"
     inkscape:window-height="408"
     inkscape:window-x="0"
     inkscape:window-y="337"
     inkscape:window-maximized="0" />
  <metadata
     id="metadata3020">
    <rdf:RDF>
      <cc:Work
         rdf:about="">
        <dc:format>image/svg+xml</dc:format>
        <dc:type
           rdf:resource="http://purl.org/dc/dcmitype/StillImage" />
        <dc:title></dc:title>
      </cc:Work>
    </rdf:RDF>
  </metadata>
  <g
     inkscape:label="Capa 1"
     inkscape:groupmode="layer"
     id="layer1"
     transform="translate(-264.28572,-359.50504)">
    <g
       id="g3818"
       transform="translate(218.23848,55.6173)">
      <path
         id="path2985"
         d="m 346.04723,453.88774 c 0,82.84271 -67.15728,150 -149.99999,150 -82.84272,0 -150,-67.15729 -150,-150 0,-82.84271 67.15728,-150 150,-150 82.84271,0 149.99999,67.15729 149.99999,150 z"
         style="fill:#005b97;fill-opacity:1;fill-rule:nonzero;stroke:none"
         inkscape:connector-curvature="0" />
      <path
         id="path3005"
         d="m 129.33662,422.45359 -23.79745,-13.73947 -23.797462,-13.73947 23.797462,-13.73947 23.79746,-13.73947 0,27.47894 z"
         inkscape:transform-center-x="7.9324901"
         style="fill:#1e9cd7;fill-opacity:1;fill-rule:nonzero;stroke:none"
         inkscape:connector-curvature="0" />
      <path
         d="m 229.1158,517.74424 1.72017,-2.45739 c 14.25267,-20.47814 18.15852,-34.80946 23.31919,-58.2366 l -12.54812,1.25957 c -1.80223,16.055 -4.05436,19.95252 -7.82221,29.45433 -1.96605,4.91483 -5.16064,10.4849 -9.5838,16.71021 l -2.70312,3.93182 -55.0454,-59.96018 3.93181,-2.21164 c 14.41656,-7.53587 24.40991,-14.08889 29.98009,-19.65908 9.17411,-9.17409 13.76123,-20.72379 13.76135,-34.64911 -1.2e-4,-11.46762 -3.85002,-21.21524 -11.54971,-29.24288 -8.68286,-8.84638 -20.15065,-13.26966 -34.40338,-13.26987 -14.90818,2.1e-4 -27.11319,4.99688 -36.61502,14.99004 -8.51896,8.84677 -12.77842,18.51247 -12.7784,28.99714 -2e-5,8.51908 2.04779,16.21888 6.14346,23.09941 3.27648,5.5702 10.15715,13.92529 20.64203,25.06532 l 3.44034,3.44033 -4.42329,2.21165 c -14.90818,7.04461 -25.72066,14.82631 -32.43748,23.34515 -6.71686,8.35518 -10.07528,18.34854 -10.07527,29.98009 -1e-5,12.61461 4.09562,23.91857 12.28692,33.9119 10.81245,13.26989 26.78544,19.90481 47.91899,19.90481 13.10597,0 24.49183,-2.45738 34.15764,-7.37215 5.89761,-2.94885 13.76123,-8.68274 23.59089,-17.20169 l 2.94886,-2.70312 21.71618,23.2002 -1.49075,-17.65765 -14.08197,-14.88061 M 130.32896,394.13781 c -4e-5,-10.32084 3.44029,-18.67593 10.32101,-25.06532 7.04445,-6.389 15.97294,-9.5836 26.78549,-9.5838 11.95918,2e-4 21.05149,3.52244 27.27696,10.56676 5.24232,5.8979 7.86352,13.5977 7.86363,23.09941 -1.1e-4,10.97647 -3.44045,19.90496 -10.32101,26.78549 -5.57017,5.5702 -15.72735,11.79556 -30.47156,18.67612 l -2.45739,0.98295 -3.44034,-3.68608 c -8.35516,-9.1741 -13.84331,-15.5633 -16.46447,-19.16759 -6.06159,-8.35496 -9.09236,-15.89094 -9.09232,-22.60794 m 82.07663,127.2925 c -6.38931,6.55306 -11.87747,11.22208 -16.46447,14.00709 -9.82964,6.06156 -20.72403,9.09234 -32.68321,9.09233 -20.47826,10e-6 -34.8949,-7.04449 -43.24997,-21.13351 -4.25949,-7.20829 -6.38922,-14.66235 -6.38919,-22.3622 -3e-5,-10.32095 3.19457,-18.92178 9.58379,-25.80253 5.89769,-6.38911 16.13677,-12.7783 30.71731,-19.1676 l 2.45738,-0.98295 58.48574,63.89199 -2.45738,2.45738"
         style="font-size:200px;font-style:normal;font-variant:normal;font-weight:bold;font-stretch:normal;text-align:start;line-height:125%;letter-spacing:0px;word-spacing:0px;text-anchor:start;fill:#ffffff;fill-opacity:1;stroke:none;font-family:Aaargh;-inkscape-font-specification:Aaargh Bold"
         id="path3787"
         inkscape:connector-curvature="0"
         sodipodi:nodetypes="cccccccccsccccscccccscscccccccccccscccccccscsccccc" />
      <path
         sodipodi:nodetypes="cccccccccccccc"
         inkscape:connector-curvature="0"
         id="text3007"
         d="m 273.74706,425.30729 c -15.7395,-0.38308 -28.37541,9.50443 -31.63336,24.1552 -3.18951,23.92441 8.24115,29.58135 18.27451,38.88524 12.90459,9.9134 28.44014,16.7127 35.78249,31.37687 4.15801,12.33662 -6.46247,27.49867 -20.04304,26.53207 -13.06045,0.0557 -25.5431,-5.88722 -32.93583,-13.62473 0.61891,7.25292 0.74717,8.64778 1.48742,17.6556 17.36442,10.61734 43.53069,12.0851 58.36444,-3.64691 9.27164,-12.06974 10.69281,-31.67029 -1.42068,-42.38987 -13.8294,-14.17228 -32.57945,-23.2578 -45.42321,-38.28144 -5.20813,-8.42979 0.0538,-20.45398 7.56413,-25.76414 13.47777,-7.71306 30.72544,-0.16388 40.85402,10.05991 -2.43696,-10.14708 -2.46131,-10.20436 -4.37722,-17.77763 -7.80083,-5.01316 -17.09865,-7.49969 -26.49367,-7.18017 z"
         style="font-size:79.42274475px;font-style:normal;font-weight:normal;text-align:end;line-height:125%;letter-spacing:0px;word-spacing:0px;text-anchor:end;fill:#1e9cd7;fill-opacity:1;stroke:none;font-family:Sans" />
    </g>
  </g>
</svg>
