<?xml version="1.0" encoding="UTF-8" standalone="no"?>
<!-- Created with Inkscape (http://www.inkscape.org/) -->

<svg xmlns:dc="http://purl.org/dc/elements/1.1/" xmlns:cc="http://creativecommons.org/ns#" xmlns:rdf="http://www.w3.org/1999/02/22-rdf-syntax-ns#"
    xmlns="http://www.w3.org/2000/svg" xmlns:sodipodi="http://sodipodi.sourceforge.net/DTD/sodipodi-0.dtd"
    xmlns:inkscape="http://www.inkscape.org/namespaces/inkscape" width="320" height="320" id="svg3015" version="1.1"
    inkscape:version="0.91 r13725" sodipodi:docname="icon.svg" inkscape:export-filename="W:\Android\AndStatus\andstatus\app\src\main\res\drawable\splash_logo.png"
    inkscape:export-xdpi="202.5" inkscape:export-ydpi="202.5">
  <defs
     id="defs3017" />
  <sodipodi:namedview
     id="base"
     pagecolor="#ffffff"
     bordercolor="#666666"
     borderopacity="1.0"
     inkscape:pageopacity="0.0"
     inkscape:pageshadow="2"
     inkscape:zoom="1.4142136"
     inkscape:cx="198.69111"
     inkscape:cy="121.67709"
     inkscape:document-units="px"
     inkscape:current-layer="layer1"
     showgrid="false"
     fit-margin-top="0"
     fit-margin-left="0"
     fit-margin-right="0"
     fit-margin-bottom="0"
     inkscape:window-width="1366"
     inkscape:window-height="704"
     inkscape:window-x="0"
     inkscape:window-y="27"
     inkscape:window-maximized="1" />
  <metadata
     id="metadata3020">
    <rdf:RDF>
      <cc:Work
         rdf:about="">
        <dc:format>image/svg+xml</dc:format>
        <dc:type
           rdf:resource="http://purl.org/dc/dcmitype/StillImage" />
        <dc:title />
      </cc:Work>
    </rdf:RDF>
  </metadata>
  <g
     inkscape:label="Capa 1"
     inkscape:groupmode="layer"
     id="layer1"
     transform="translate(-264.28572,-339.50504)">
    <path
       inkscape:connector-curvature="0"
       style="fill:#005b97;fill-opacity:1;fill-rule:nonzero;stroke:none"
       d="m 574.12452,500.12548 c 0,82.84271 -67.15728,150 -149.99999,150 -82.84272,0 -150,-67.15729 -150,-150 0,-82.84271 67.15728,-150 150,-150 82.84271,0 149.99999,67.15729 149.99999,150 z"
       id="circle" />
    <path
       style="fill:#ffffff;fill-opacity:1;fill-rule:nonzero;stroke:none"
       d="m 122.07812,54.134766 c -0.78243,0.01041 -1.5625,0.03462 -2.34179,0.07422 -14.82716,0.111767 -29.318411,7.694334 -38.556642,19.210938 -16.349771,9.422622 -32.68295,18.874088 -49.03711,28.289056 16.476216,9.49931 32.951049,19.00127 49.414063,28.52344 2.227884,3.09594 4.688962,6.02568 7.267578,8.76758 3.65232,4.11031 7.297967,8.28775 11.224611,12.17773 -18.878784,8.78173 -39.033622,21.59139 -44.125002,43.25 -6.41044,25.16944 7.544206,53.35592 31.541016,63.27539 20.768566,8.11981 45.559736,7.31742 65.521486,-2.80664 8.8059,-5.00739 16.7265,-11.54933 24.28125,-18.28125 8.10348,8.66731 8.21066,10.364 16.99023,18.34571 16.78793,15.26231 48.98476,16.44026 64.79102,-0.37696 10.75798,-13.54454 10.8128,-36.08931 -3.66211,-47.0332 -13.61799,-13.47861 -32.17583,-22.00702 -43.80664,-37.31055 -1.04359,-2.81342 -1.21567,-5.74285 -0.71485,-8.55859 0.004,-0.0195 0.008,-0.039 0.0117,-0.0586 l -0.002,0 c 1.60903,-8.87446 9.96572,-16.58958 19.33008,-15.85157 13.05564,0.0884 23.77872,8.20711 32.34375,17.4375 -2.41968,-8.45279 -3.46851,-17.92194 -6.875,-25.71875 -9.0219,-5.86791 -19.82347,-8.07888 -30.53125,-7.40625 -17.56579,0.34235 -32.74405,16.67266 -31.15625,34.34375 -0.0168,0.33501 -0.004,0.66369 -0.008,0.9961 -1.5954,16.84202 -8.22772,32.985 -18.30469,46.53515 l -51.65625,-56.28125 c 17.25786,-9.29937 37.42424,-19.35321 43.78125,-39.46875 6.19656,-17.70453 2.22855,-39.617674 -12.9375,-51.468744 -9.05999,-7.598718 -21.04657,-10.761645 -32.78321,-10.605468 z m 2.35352,14.017578 c 12.8748,0.218769 25.86306,7.945422 29.14844,20.86914 4.46707,15.559476 -1.09791,33.798796 -15.48047,42.003906 -7.5019,5.16289 -15.58573,9.20523 -23.83203,12.93359 -10.71356,-12.68287 -25.953212,-24.89211 -27.531252,-42.5625 -1.10971,-16.303272 11.748948,-30.661556 27.687502,-32.593746 2.42561,-0.45767 4.93169,-0.52445 7.4375,-0.59375 0.8544,-0.05284 1.71199,-0.07122 2.57031,-0.05664 z m -14.16406,96.025386 56.25,61.46875 c -11.62783,13.16234 -27.63973,23.16008 -45.625,23.53125 -17.48604,1.25974 -37.112392,-4.87286 -45.531252,-21.40625 -9.43296,-15.99445 -6.3836,-39.00297 9.5,-49.625 7.74338,-5.84118 16.546632,-10.17252 25.406252,-13.96875 z m 93.8789,24.21485 c 1.95502,2.01744 4.08651,3.85587 6.3086,5.47851 12.63065,11.7906 31.71744,17.90144 38.6875,34.83789 2.55782,11.9249 -8.63598,24.4625 -20.9375,22.21875 -12.75732,-0.63643 -24.92262,-7.02929 -33.0625,-17.03125 1.6e-4,0.002 -1.6e-4,0.004 0,0.006 -4.30996,-4.54941 -4.71966,-5.01723 -9.03125,-9.56836 8.20533,-10.92035 13.87091,-23.13243 18.03515,-35.9414 z"
       transform="translate(264.28572,339.50504)"
       id="less-letter"
       inkscape:connector-curvature="0"
       sodipodi:nodetypes="sccccccccccsccccccccccccccccssccccccscccccccccccccccc" />
  </g>
</svg>
