<?xml version="1.0" encoding="UTF-8" standalone="no"?>
<!-- Created with Inkscape (http://www.inkscape.org/) -->

<svg
   xmlns:dc="http://purl.org/dc/elements/1.1/"
   xmlns:cc="http://creativecommons.org/ns#"
   xmlns:rdf="http://www.w3.org/1999/02/22-rdf-syntax-ns#"
   xmlns:svg="http://www.w3.org/2000/svg"
   xmlns="http://www.w3.org/2000/svg"
   xmlns:sodipodi="http://sodipodi.sourceforge.net/DTD/sodipodi-0.dtd"
   xmlns:inkscape="http://www.inkscape.org/namespaces/inkscape"
   width="300"
   height="300"
   id="svg3093"
   version="1.1"
   inkscape:version="0.48.5 r10040"
   sodipodi:docname="notification_icon.svg"
   inkscape:export-filename="/home/alberto/Proyectos/Git/andstatus/app/res/drawable-xxhdpi/notification_icon.png"
   inkscape:export-xdpi="43.200001"
   inkscape:export-ydpi="43.200001">
  <defs
     id="defs3095" />
  <sodipodi:namedview
     id="base"
     pagecolor="#ffffff"
     bordercolor="#666666"
     borderopacity="1.0"
     inkscape:pageopacity="0.0"
     inkscape:pageshadow="2"
     inkscape:zoom="0.7"
     inkscape:cx="186.66351"
     inkscape:cy="167.76303"
     inkscape:document-units="px"
     inkscape:current-layer="layer1"
     showgrid="false"
     fit-margin-top="0"
     fit-margin-left="0"
     fit-margin-right="0"
     fit-margin-bottom="0"
     inkscape:window-width="584"
     inkscape:window-height="408"
     inkscape:window-x="651"
     inkscape:window-y="113"
     inkscape:window-maximized="0" />
  <metadata
     id="metadata3098">
    <rdf:RDF>
      <cc:Work
         rdf:about="">
        <dc:format>image/svg+xml</dc:format>
        <dc:type
           rdf:resource="http://purl.org/dc/dcmitype/StillImage" />
        <dc:title></dc:title>
      </cc:Work>
    </rdf:RDF>
  </metadata>
  <g
     inkscape:label="Capa 1"
     inkscape:groupmode="layer"
     id="layer1"
     transform="translate(72.85714,-273.79075)">
    <path
       inkscape:connector-curvature="0"
       style="fill:#ffffff;fill-opacity:1;fill-rule:nonzero;stroke:none"
       d="m 227.14285,423.79075 c 0,82.84271 -67.15728,150 -149.99999,150 -82.84272,0 -150,-67.15729 -150,-150 0,-82.84271 67.15728,-150 150,-150 82.84271,0 149.99999,67.15729 149.99999,150 z"
       id="path2985" />
    <path
       style="fill:#808080;fill-opacity:1;fill-rule:nonzero;stroke:none"
       d="M 122.125 45.53125 C 107.21682 45.53146 95.00183 50.53809 85.5 60.53125 C 84.33747 61.738515 83.253886 62.949734 82.25 64.1875 L 59.5 77.34375 L 35.6875 91.09375 L 59.5 104.8125 L 82.6875 118.21875 C 86.497715 123.31673 92.098925 129.79076 99.53125 137.6875 L 102.96875 141.125 L 98.53125 143.34375 C 83.62307 150.38836 72.81057 158.16866 66.09375 166.6875 C 59.37689 175.04268 56.03124 185.0247 56.03125 196.65625 C 56.03124 209.27086 60.1212 220.56917 68.3125 230.5625 C 79.12495 243.83239 95.0852 250.46875 116.21875 250.46875 C 129.32472 250.46875 140.70919 248.00852 150.375 243.09375 C 156.27261 240.1449 164.13909 234.4252 173.96875 225.90625 L 176.9375 223.1875 L 198.625 246.375 C 198.6263 246.39079 198.6237 246.39042 198.625 246.40625 L 198.65625 246.40625 C 216.02077 257.01089 242.17277 258.4751 257 242.75 C 266.27164 230.68026 267.67599 211.09458 255.5625 200.375 C 241.7331 186.20272 223.00001 177.11739 210.15625 162.09375 C 204.94812 153.66396 210.20842 141.62266 217.71875 136.3125 C 231.19652 128.59944 248.43392 136.15121 258.5625 146.375 C 256.12554 136.22792 256.10341 136.16702 254.1875 128.59375 C 246.38667 123.58059 237.08252 121.08673 227.6875 121.40625 C 211.948 121.02317 199.32045 130.91173 196.0625 145.5625 C 195.62256 148.8625 195.48816 151.80635 195.5625 154.46875 C 193.7609 170.49538 191.5152 174.37987 187.75 183.875 C 185.78395 188.78983 182.57941 194.36844 178.15625 200.59375 L 175.4375 204.53125 L 120.40625 144.5625 L 124.34375 142.34375 C 138.76031 134.80788 148.74232 128.25769 154.3125 122.6875 C 163.48661 113.51341 168.09363 101.95657 168.09375 88.03125 C 168.09363 76.56363 164.23094 66.80889 156.53125 58.78125 C 147.84839 49.93487 136.37773 45.53146 122.125 45.53125 z M 121.375 55.59375 C 133.33418 55.59395 142.43078 59.11193 148.65625 66.15625 C 153.89857 72.05415 156.53114 79.77954 156.53125 89.28125 C 156.53114 100.25772 153.09931 109.18197 146.21875 116.0625 C 140.64858 121.6327 130.49421 127.83819 115.75 134.71875 L 113.28125 135.71875 L 109.84375 132.03125 C 101.48859 122.85715 95.99616 116.44804 93.375 112.84375 C 87.31341 104.48879 84.28121 96.967 84.28125 90.25 C 84.28121 79.92916 87.71303 71.57689 94.59375 65.1875 C 101.6382 58.7985 110.56245 55.59395 121.375 55.59375 z M 110.34375 151.1875 L 168.8125 215.09375 L 166.34375 217.53125 C 159.95444 224.08431 154.49325 228.77749 149.90625 231.5625 C 140.07661 237.62406 129.17793 240.65626 117.21875 240.65625 C 96.74049 240.65626 82.32382 233.58902 73.96875 219.5 C 69.70926 212.29171 67.56247 204.8561 67.5625 197.15625 C 67.56247 186.8353 70.76703 178.2245 77.15625 171.34375 C 83.05394 164.95464 93.29446 158.5768 107.875 152.1875 L 110.34375 151.1875 z M 202.96875 173.96875 C 206.34937 177.76764 210.44563 180.85404 214.34375 184.46875 C 227.24834 194.38215 242.78265 201.17958 250.125 215.84375 C 254.28301 228.18037 243.67432 243.3416 230.09375 242.375 C 217.0333 242.4307 204.54898 236.48751 197.15625 228.75 L 183.0625 213.84375 L 184.78125 211.40625 C 194.32176 197.69851 199.22081 186.73981 202.96875 173.96875 z "
       transform="translate(-72.85714,273.79075)"
       id="path3005" />
  </g>
</svg>
