<?xml version="1.0" encoding="UTF-8" standalone="no"?>
<!-- Created with Inkscape (http://www.inkscape.org/) -->

<svg
   xmlns:dc="http://purl.org/dc/elements/1.1/"
   xmlns:cc="http://creativecommons.org/ns#"
   xmlns:rdf="http://www.w3.org/1999/02/22-rdf-syntax-ns#"
   xmlns:svg="http://www.w3.org/2000/svg"
   xmlns="http://www.w3.org/2000/svg"
   xmlns:sodipodi="http://sodipodi.sourceforge.net/DTD/sodipodi-0.dtd"
   xmlns:inkscape="http://www.inkscape.org/namespaces/inkscape"
   width="300"
   height="300"
   id="svg3015"
   version="1.1"
   inkscape:version="0.48.5 r10040"
   sodipodi:docname="notification_icon.svg"
   inkscape:export-filename="W:\Android\AndStatus\Repository\app\res\drawable-xxhdpi\notification_icon.png"
   inkscape:export-xdpi="21.6"
   inkscape:export-ydpi="21.6">
  <defs
     id="defs3017" />
  <sodipodi:namedview
     id="base"
     pagecolor="#d4d4d4"
     bordercolor="#666666"
     borderopacity="1.0"
     inkscape:pageopacity="0"
     inkscape:pageshadow="2"
     inkscape:zoom="2"
     inkscape:cx="241.80571"
     inkscape:cy="168.78342"
     inkscape:document-units="px"
     inkscape:current-layer="layer1"
     showgrid="true"
     fit-margin-top="0"
     fit-margin-left="0"
     fit-margin-right="0"
     fit-margin-bottom="0"
     inkscape:window-width="1920"
     inkscape:window-height="1005"
     inkscape:window-x="-9"
     inkscape:window-y="-9"
     inkscape:window-maximized="1">
    <inkscape:grid
       type="xygrid"
       id="grid3754"
       empspacing="5"
       visible="true"
       enabled="true"
       snapvisiblegridlinesonly="true" />
  </sodipodi:namedview>
  <metadata
     id="metadata3020">
    <rdf:RDF>
      <cc:Work
         rdf:about="">
        <dc:format>image/svg+xml</dc:format>
        <dc:type
           rdf:resource="http://purl.org/dc/dcmitype/StillImage" />
        <dc:title></dc:title>
      </cc:Work>
    </rdf:RDF>
  </metadata>
  <g
     inkscape:label="Capa 1"
     inkscape:groupmode="layer"
     id="layer1"
     transform="translate(-264.28572,-359.50504)">
    <path
       inkscape:connector-curvature="0"
       style="fill:#1067a0;fill-opacity:0;fill-rule:nonzero;stroke:none"
       d="m 564.28571,509.50504 c 0,82.84271 -67.15728,150 -149.99999,150 -82.84272,0 -150,-67.15729 -150,-150 0,-82.84271 67.15728,-150 150,-150 82.84271,0 149.99999,67.15729 149.99999,150 z"
       id="path2985" />
    <path
       style="fill:#ffffff;fill-opacity:1;fill-rule:nonzero;stroke:none"
       d="m 329.41424,408.19219 c -19.40052,11.1777 -38.77844,22.39466 -58.18282,33.56562 20.55057,11.84836 41.10172,23.69611 61.63282,35.57813 0,-23.71875 0,-47.4375 0,-71.15625 -1.15,0.67083 -2.3,1.34167 -3.45,2.0125 z"
       id="path3005"
       inkscape:connector-curvature="0" />
    <path
       style="font-size:200px;font-style:normal;font-variant:normal;font-weight:bold;font-stretch:normal;text-align:start;line-height:125%;letter-spacing:0px;word-spacing:0px;text-anchor:start;fill:#ffffff;fill-opacity:1;stroke:none;font-family:Aaargh;-inkscape-font-specification:Aaargh Bold"
       d="m 374.16217,387.13281 c -27.85163,0.20995 -54.7067,23.31564 -55.81093,51.67813 -1.03921,17.7301 8.60473,33.43505 20.26247,45.83096 4.20016,4.72686 8.3922,9.5315 12.90784,14.00497 -21.7106,10.09899 -44.88866,24.8301 -50.74375,49.7375 -7.37201,28.94486 8.676,61.3598 36.27233,72.7672 23.88386,9.33777 52.39353,8.41454 75.34954,-3.22813 10.12679,-5.7585 19.23548,-13.28173 27.92344,-21.02344 9.319,9.96741 13.58326,14.85732 22.8936,24.83281 -0.79046,-9.35688 -1.5552,-18.77865 -2.33414,-27.95168 -4.95938,-5.23489 -5.42977,-5.76968 -10.38915,-11.00457 15.85854,-21.10589 23.5084,-46.39076 28.481,-72.11784 -6.17638,1.42549 -14.7908,-0.19939 -19.29669,2.99892 -1.59593,19.86384 -9.32503,38.93671 -21.18743,54.88767 -19.80156,-21.57448 -39.60313,-43.14895 -59.40469,-64.72344 19.84654,-10.69427 43.03788,-22.25619 50.34844,-45.38906 7.12604,-20.36022 2.56283,-45.56033 -14.87813,-59.18906 -11.11359,-9.3211 -26.05479,-12.83945 -40.39375,-12.11094 z m 2.44375,16.1 c 15.72106,-0.97227 32.44651,8.08128 36.47657,23.93438 5.13713,17.8934 -1.26293,38.86796 -17.80288,48.30384 -8.62718,5.93732 -17.92325,10.58667 -27.4065,14.87428 -12.32059,-14.5853 -29.84619,-28.62592 -31.66094,-48.94687 -1.27616,-18.74877 13.5113,-35.2608 31.84063,-37.48282 2.78945,-0.52632 5.67144,-0.60311 8.55312,-0.68281 z m 51.35469,181.05313 c -13.372,15.13669 -31.78569,26.63409 -52.46875,27.06093 -20.10895,1.44871 -42.67925,-5.60378 -52.36094,-24.61718 -10.8479,-18.39362 -7.34114,-44.85342 10.925,-57.06875 8.90489,-6.71736 19.02863,-11.6984 29.21719,-16.06407 21.5625,23.56302 43.125,47.12605 64.6875,70.68907 z"
       id="path3787"
       inkscape:connector-curvature="0"
       sodipodi:nodetypes="ccccccccccccccccccccccccccccccc" />
    <path
       style="font-size:79.42274475000000700px;font-style:normal;font-weight:normal;text-align:end;line-height:125%;letter-spacing:0px;word-spacing:0px;text-anchor:end;fill:#ffffff;fill-opacity:1;stroke:none;font-family:Sans"
       d="m 495.37936,474.38906 c -20.20066,0.3937 -37.65566,19.17356 -35.82969,39.49531 -0.70047,13.99619 8.24737,26.05276 18.93846,33.85978 14.52524,13.55919 36.47566,20.58674 44.49123,40.06366 2.94149,13.71364 -9.93138,28.13188 -24.07812,25.55156 -14.67092,-0.73189 -28.66102,-8.08368 -38.02188,-19.58593 0.78355,9.31938 1.55565,18.63978 2.33594,27.95937 21.09497,13.44526 52.97905,15.17106 71.15625,-4.16875 12.37168,-15.57622 12.43572,-41.50343 -4.21043,-54.0889 -15.66069,-15.5004 -37.0032,-25.30735 -50.37863,-42.90641 -4.99304,-13.46088 7.21121,-29.25877 21.41875,-28.13906 15.01398,0.10166 27.34552,9.43817 37.19531,20.05312 -2.78263,-9.72071 -3.98879,-20.61023 -7.90625,-29.57656 -10.37519,-6.7481 -22.79699,-9.29071 -35.11094,-8.51719 z"
       id="text3007"
       inkscape:connector-curvature="0" />
  </g>
</svg>
