<?xml version="1.0" encoding="UTF-8" standalone="no"?>
<!-- Created with Inkscape (http://www.inkscape.org/) -->

<svg
   xmlns:dc="http://purl.org/dc/elements/1.1/"
   xmlns:cc="http://creativecommons.org/ns#"
   xmlns:rdf="http://www.w3.org/1999/02/22-rdf-syntax-ns#"
   xmlns:svg="http://www.w3.org/2000/svg"
   xmlns="http://www.w3.org/2000/svg"
   xmlns:sodipodi="http://sodipodi.sourceforge.net/DTD/sodipodi-0.dtd"
   xmlns:inkscape="http://www.inkscape.org/namespaces/inkscape"
   width="300"
   height="300"
   id="svg2"
   version="1.1"
   inkscape:version="0.48.5 r10040"
   sodipodi:docname="Notif_Icon.svg">
  <defs
     id="defs4" />
  <sodipodi:namedview
     id="base"
     pagecolor="#ffffff"
     bordercolor="#666666"
     borderopacity="1.0"
     inkscape:pageopacity="0.0"
     inkscape:pageshadow="2"
     inkscape:zoom="1"
     inkscape:cx="36.050228"
     inkscape:cy="145.90291"
     inkscape:document-units="px"
     inkscape:current-layer="layer1"
     showgrid="false"
     fit-margin-top="0"
     fit-margin-left="0"
     fit-margin-right="0"
     fit-margin-bottom="0"
     inkscape:window-width="1366"
     inkscape:window-height="720"
     inkscape:window-x="0"
     inkscape:window-y="25"
     inkscape:window-maximized="1" />
  <metadata
     id="metadata7">
    <rdf:RDF>
      <cc:Work
         rdf:about="">
        <dc:format>image/svg+xml</dc:format>
        <dc:type
           rdf:resource="http://purl.org/dc/dcmitype/StillImage" />
        <dc:title />
      </cc:Work>
    </rdf:RDF>
  </metadata>
  <g
     inkscape:label="Capa 1"
     inkscape:groupmode="layer"
     id="layer1"
     transform="translate(-255.71875,-205.21875)">
    <path
       style="fill:#ffffff;fill-opacity:1;fill-rule:nonzero;stroke:none"
       d="m 405.71875,205.21875 c -82.84272,0 -150,67.15729 -150,150 0,82.84271 67.15728,150 150,150 82.84271,0 150,-67.15729 150,-150 0,-82.84271 -67.15729,-150 -150,-150 z m -37.90625,41.5 c 9.12205,-0.0237 18.33029,1.89524 26.34375,6.21875 19.80369,10.08174 27.91388,35.04997 21.5625,55.84375 -5.33317,21.05931 -25.44661,32.66936 -43.40625,41.96875 l 48.28125,52.59375 c 9.07821,-12.8617 15.02663,-27.9601 16.5,-43.625 -1.89586,-18.91404 14.46777,-36.78555 33.3125,-37.15625 0.61259,-0.012 1.22649,0.006 1.84375,0.0312 10.35356,-0.34469 20.98577,2.13328 29.65625,7.8125 5.44303,10.40815 5.86515,22.95427 9.625,34.1875 -8.98321,-9.59137 -19.06719,-20.4026 -32.84375,-22 -11.7117,-2.98735 -24.57648,8.85237 -20.375,20.625 7.28004,17.46152 28.95534,23.31145 42.3125,36.21875 16.72689,11.83203 17.3606,38.51051 3.4375,52.71875 -17.09807,16.05956 -46.71106,15.13767 -63.125,1.46875 -7.31453,-6.56311 -9.82031,-9.85622 -16.625,-17.1875 -2.80925,-4.90164 -6.09129,2.13063 -9.375,3.6875 C 395.33184,458.0708 366.48305,463.73889 341,457.0625 312.07447,451.07769 292.52336,419.67092 298.59375,391 c 3.98591,-22.32282 23.95311,-36.79093 43.21875,-45.8125 -5.00905,-5.31137 -10.28816,-10.83644 -14.875,-16.8125 -18.50321,-10.69989 -37.016,-21.38345 -55.53125,-32.0625 18.54488,-10.69226 37.0941,-21.37732 55.625,-32.09375 C 336.88247,253.41318 351.26547,246.4838 366,246.75 c 0.60709,-0.0187 1.20436,-0.0297 1.8125,-0.0312 z m 1.875,18 c -0.43224,-7.7e-4 -0.84953,0.0115 -1.28125,0.0312 -1.06192,0.0545 -2.12431,0.0967 -3.1875,0.125 -15.4093,-0.5826 -30.57402,11.82582 -31.3125,27.4375 -0.60382,18.45523 15.11783,31.02918 26,43.75 6.84587,-2.94902 13.58787,-6.50673 19.96875,-10.59375 13.41292,-6.70163 20.49603,-22.48971 17.90625,-37.03125 -1.22976,-13.90283 -14.69444,-23.69475 -28.09375,-23.71875 z m -14.75,96.46875 c -7.22854,3.09344 -14.26997,6.65104 -20.8125,11.0625 -15.12315,8.32639 -20.72248,28.14431 -14.40625,43.875 5.05998,14.88865 20.25193,24.36153 35.53125,25.4375 20.24676,2.7655 40.38536,-6.1657 53.75,-21.3125 z m 95.15625,25.375 c -3.46689,10.173 -7.93553,19.9704 -14.1875,29.09375 -2.3884,4.07952 -0.50738,3.49342 5.8897,10.62102 9.39199,9.2621 18.26503,17.07484 29.13933,19.14361 11.2106,0.8007 24.42923,-9.39516 23.15847,-20.73338 -5.19855,-15.82623 -24.02103,-21.63995 -36.03125,-31.46875 -2.71644,-2.01674 -5.44018,-4.23458 -7.96875,-6.65625 z"
       id="path2985"
       inkscape:connector-curvature="0"
       sodipodi:nodetypes="ssssscccccccccccccccccccccccccccccccccccccccccccccccc" />
  </g>
</svg>
